<svg xmlns="http://www.w3.org/2000/svg" width="186" height="38" viewBox="0 0 186 38" fill="none">
  <path d="M0 24.7999H7.37977V17.4512H0V24.7999Z" fill="white"/>
  <path d="M17.7363 2.4437C23.7517 2.53672 27.3176 6.53667 27.8447 13.8234L29.7982 13.5134L29.4261 0.707275H0.37209L0 13.5134L1.95347 13.8234C2.4806 6.53667 5.98444 2.53672 12.0619 2.4437V29.2651C12.0619 34.1643 11.2247 34.9395 5.95343 34.9705V37.017H23.8447V34.9705C18.5735 34.9085 17.7363 34.1333 17.7363 29.2651V2.4437Z" fill="white"/>
  <path d="M22.3564 24.7999H29.7362V17.4512H22.3564V24.7999Z" fill="white"/>
  <path d="M31.7208 11.839H31.9068C32.0929 11.839 32.1859 11.9011 32.1859 12.0561C32.1859 12.2111 32.0929 12.3042 31.8758 12.3042H31.7208V11.839ZM32.1859 12.4902C32.4029 12.3972 32.496 12.2732 32.496 12.0561C32.496 11.9011 32.4339 11.777 32.3409 11.715C32.2169 11.622 32.0929 11.591 31.9068 11.591H31.3797V13.2344H31.6898V12.5832H31.8758L32.3099 13.2344H32.682L32.1859 12.4902ZM30.8526 11.3119C30.5425 11.622 30.4185 11.9631 30.4185 12.3972C30.4185 12.8313 30.5735 13.1724 30.8526 13.4824C31.1626 13.7925 31.5037 13.9165 31.9378 13.9165C32.3719 13.9165 32.713 13.7615 33.0231 13.4824C33.3332 13.1724 33.4572 12.8313 33.4572 12.3972C33.4572 11.9941 33.3022 11.622 33.0231 11.3429C32.713 11.0328 32.3719 10.9088 31.9378 10.9088C31.5037 10.8778 31.1316 11.0329 30.8526 11.3119ZM31.0386 13.2964C30.7905 13.0483 30.6665 12.7693 30.6665 12.4282C30.6665 12.0871 30.7905 11.808 31.0386 11.56C31.2867 11.3119 31.5657 11.1879 31.9068 11.1879C32.2479 11.1879 32.558 11.3119 32.775 11.56C33.0231 11.808 33.1471 12.0871 33.1471 12.4282C33.1471 12.7693 33.0231 13.0793 32.775 13.2964C32.527 13.5445 32.2479 13.6685 31.9068 13.6685C31.5657 13.6375 31.2867 13.5445 31.0386 13.2964Z" fill="white"/>
  <path d="M53.0285 17.1276V3.79434H49.0596V0.817627H60.5633V3.79434H56.5634V17.1276H53.0285Z" fill="white"/>
  <path d="M65.2132 9.53052V12.4762H59.7559V9.53052H65.2132Z" fill="white"/>
  <path d="M69.1226 17.1274V0.786499H73.8977L76.8124 11.9802L79.6651 0.786499H84.3782V17.1274H81.0294V5.74769L78.2077 17.1274H75.3551L72.4714 5.90273V17.1274H69.1226Z" fill="white"/>
  <path d="M92.9962 0.413818C94.8877 0.413818 96.438 1.127 97.7093 2.52233C99.1357 4.13472 99.8799 6.27423 99.8799 8.97188C99.8799 11.2664 99.3217 13.2199 98.2365 14.7703C97.5853 15.7005 96.7791 16.4137 95.7869 16.8788C94.9187 17.3129 93.9264 17.5299 92.8412 17.5299C90.5156 17.5299 88.7172 16.5687 87.4149 14.7083C86.3606 13.1889 85.8335 11.2974 85.8335 9.00289C85.8335 6.30524 86.5157 4.16573 87.911 2.64636C89.2133 1.12699 90.9187 0.413818 92.9962 0.413818ZM92.8412 3.39054C91.7869 3.39054 90.9497 3.91766 90.3606 4.9099C89.7094 6.02617 89.3994 7.32849 89.3994 8.90987C89.3994 10.5533 89.7094 11.9176 90.3606 13.0029C90.6397 13.499 91.0738 13.9021 91.6319 14.2121C92.035 14.4292 92.4691 14.5532 92.9342 14.5532C93.6164 14.5532 94.2055 14.3052 94.7326 13.8401C95.2598 13.3749 95.6939 12.6308 96.0039 11.6385C96.252 10.7703 96.376 9.87109 96.376 8.94087C96.376 7.32848 96.066 6.02617 95.4458 4.9099C94.7947 3.91766 93.9575 3.39054 92.8412 3.39054Z" fill="white"/>
  <path d="M101.307 17.1274V0.755493H107.167C108.345 0.755493 109.245 0.879525 109.865 1.09658C110.795 1.40665 111.477 1.93378 111.911 2.67796C112.314 3.32912 112.5 4.01128 112.5 4.78646C112.5 6.39885 111.725 7.54613 110.144 8.29031C112.159 8.97248 113.151 10.3058 113.151 12.3523C113.151 14.1507 112.469 15.453 111.136 16.3523C110.299 16.9104 109.152 17.1894 107.787 17.1894H101.307V17.1274ZM104.872 7.39109H106.454C107.322 7.39109 107.942 7.26706 108.314 6.988C108.81 6.61591 109.059 6.08878 109.059 5.40661C109.059 4.66243 108.748 4.13531 108.159 3.79423C107.849 3.60819 107.26 3.51516 106.454 3.51516H104.872V7.39109ZM104.872 14.3368H106.795C107.787 14.3368 108.5 14.1817 108.903 13.8406C109.431 13.4376 109.679 12.8484 109.679 12.0422C109.679 11.143 109.338 10.4918 108.655 10.1508C108.252 9.93371 107.601 9.80968 106.671 9.80968H104.904L104.872 14.3368Z" fill="white"/>
  <path d="M114.61 17.1274V0.786499H118.145V17.1274H114.61Z" fill="white"/>
  <path d="M120.192 17.1274V0.786499H123.727V14.0887H130.176V17.1274H120.192Z" fill="white"/>
  <path d="M131.602 17.1274V0.786499H142.052V3.76322H135.106V7.26706H141.462V10.1197H135.106V14.1507H142.207V17.1274H131.602Z" fill="white"/>
  <path d="M49.2275 36.9669V20.595H59.1809V23.6027H52.7314V27.4166H58.3127V30.2693H52.7314V36.9669H49.2275Z" fill="white"/>
  <path d="M66.6544 20.2539C68.5459 20.2539 70.0963 20.9671 71.3676 22.3624C72.7939 23.9748 73.5381 26.1143 73.5381 28.812C73.5381 31.1065 72.9799 33.06 71.8947 34.6104C71.2435 35.5406 70.4373 36.2538 69.4451 36.7189C68.5769 37.153 67.5846 37.37 66.4994 37.37C64.1738 37.37 62.3754 36.4088 61.0731 34.5483C60.0188 33.029 59.4917 31.1375 59.4917 28.843C59.4917 26.1453 60.1739 24.0058 61.5692 22.4864C62.8715 20.9671 64.5769 20.2539 66.6544 20.2539ZM66.4994 23.2616C65.4451 23.2616 64.6079 23.7888 64.0188 24.781C63.3676 25.8973 63.0576 27.1996 63.0576 28.781C63.0576 30.4244 63.3676 31.7887 64.0188 32.8739C64.2979 33.3701 64.732 33.7732 65.2901 34.0832C65.6932 34.3003 66.1273 34.4243 66.5924 34.4243C67.2746 34.4243 67.8637 34.1763 68.3908 33.7112C68.918 33.246 69.3521 32.5019 69.6621 31.5096C69.9102 30.6414 70.0342 29.7422 70.0342 28.812C70.0342 27.1996 69.7242 25.8973 69.104 24.781C68.4529 23.7578 67.5846 23.2616 66.4994 23.2616Z" fill="white"/>
  <path d="M74.9961 36.9669V20.595H81.2906C82.965 20.595 84.2363 20.9671 85.1045 21.6802C86.1588 22.5174 86.6549 23.6647 86.6549 25.1531C86.6549 26.3934 86.2828 27.4166 85.5696 28.2848C85.2596 28.6569 84.8255 28.967 84.2983 29.215C84.9805 29.4321 85.4766 29.8352 85.8487 30.4863C86.0968 30.8584 86.2518 31.4476 86.3758 32.1918C86.4378 32.4708 86.4999 33.277 86.5929 34.6414C86.6549 35.5096 86.7479 36.0987 86.872 36.3778C86.934 36.5328 87.027 36.7499 87.182 36.9669H83.5542C83.4301 36.6878 83.3681 36.3778 83.3061 36.0367C83.2751 35.8506 83.2131 35.1375 83.1511 33.9282C83.058 32.7809 82.903 32.0367 82.717 31.6646C82.4689 31.1375 82.0968 30.7964 81.6007 30.6414C81.3526 30.5794 80.9805 30.5174 80.5154 30.5174H78.4999V36.9049H74.9961V36.9669ZM78.5309 27.9127H80.4844C81.5697 27.9127 82.2828 27.6957 82.6859 27.2306C83.027 26.8275 83.2131 26.3003 83.2131 25.5872C83.2131 24.75 82.934 24.1298 82.3449 23.7267C82.0038 23.4787 81.4146 23.3856 80.5464 23.3856H78.5309V27.9127Z" fill="white"/>
  <path d="M91.9536 36.9669V20.595H97.814C98.9923 20.595 99.8915 20.719 100.512 20.9361C101.442 21.2461 102.124 21.7733 102.558 22.5174C102.961 23.1686 103.147 23.8508 103.147 24.6259C103.147 26.2383 102.372 27.3856 100.791 28.1298C102.806 28.812 103.798 30.1453 103.798 32.1918C103.798 33.9902 103.116 35.2925 101.783 36.1917C100.946 36.7499 99.7985 37.0289 98.4342 37.0289H91.9846V36.9669H91.9536ZM95.4885 27.2306H97.0698C97.9381 27.2306 98.5582 27.1065 98.9303 26.8275C99.4264 26.4554 99.6745 25.9283 99.6745 25.2461C99.6745 24.5019 99.3644 23.9748 98.7753 23.6337C98.4652 23.4477 97.876 23.3546 97.0698 23.3546H95.4885V27.2306ZM95.4885 34.1762H97.4109C98.4032 34.1762 99.1163 34.0212 99.5194 33.6801C100.047 33.277 100.295 32.6879 100.295 31.8817C100.295 30.9825 99.9535 30.3313 99.2714 29.9902C98.8683 29.7732 98.2171 29.6492 97.2869 29.6492H95.4885V34.1762Z" fill="white"/>
  <path d="M105.073 20.595H108.421V30.1143C108.421 31.6956 108.638 32.7499 109.072 33.37C109.538 34.0212 110.251 34.3623 111.212 34.3623C112.266 34.3623 112.979 33.9282 113.352 33.029C113.631 32.4088 113.755 31.4476 113.755 30.1143V20.626H117.258V29.9902C117.258 31.4786 117.165 32.5639 116.948 33.339C116.576 34.6414 115.925 35.6336 114.995 36.3468C114.065 37.0599 112.762 37.401 111.15 37.401C108.793 37.401 107.119 36.5948 106.096 35.0444C105.662 34.3313 105.352 33.4941 105.197 32.5639C105.104 31.9437 105.042 31.0755 105.042 29.9902L105.073 20.595Z" fill="white"/>
  <path d="M118.373 32.1918H121.908C122.001 32.8429 122.156 33.308 122.342 33.6181C122.776 34.2693 123.365 34.5794 124.14 34.5794C124.854 34.5794 125.381 34.3623 125.784 33.9282C126.125 33.5561 126.28 33.091 126.28 32.5329C126.28 31.8817 126.001 31.3546 125.474 30.9205C125.226 30.7034 124.885 30.5174 124.482 30.3623C124.357 30.3003 123.954 30.1763 123.272 29.9282C121.908 29.4631 120.947 28.967 120.327 28.5019C119.117 27.5407 118.528 26.3314 118.528 24.812C118.528 23.4787 118.962 22.4554 119.799 21.6182C120.73 20.688 122.032 20.2539 123.644 20.2539C125.691 20.2539 127.21 20.9671 128.264 22.3314C128.761 22.9826 129.071 23.8508 129.226 24.905H125.815C125.722 24.2539 125.536 23.8198 125.226 23.5097C124.854 23.1686 124.326 23.0136 123.675 23.0136C123.117 23.0136 122.683 23.1376 122.373 23.4167C122.001 23.7267 121.815 24.1298 121.815 24.688C121.815 25.3081 122.094 25.8042 122.621 26.1763C123.024 26.4554 123.83 26.7965 125.009 27.1996C126.404 27.6647 127.489 28.1918 128.202 28.781C129.319 29.6802 129.877 30.8275 129.877 32.3158C129.877 33.8042 129.35 35.0135 128.326 35.9437C127.241 36.9049 125.815 37.401 124.078 37.401C121.939 37.401 120.389 36.5948 119.334 35.0135C118.807 34.1763 118.497 33.246 118.373 32.1918Z" fill="white"/>
  <path d="M131.179 36.9669V20.595H134.714V36.9669H131.179Z" fill="white"/>
  <path d="M136.762 36.9669V20.595H140.328L145.475 31.1375V20.595H148.855V36.9669H145.351L140.173 26.4554V36.9669H136.762Z" fill="white"/>
  <path d="M150.933 36.9669V20.595H161.382V23.6027H154.437V27.1065H160.793V29.9592H154.437V33.9902H161.537V36.9669H150.933Z" fill="white"/>
  <path d="M162.467 32.1918H166.001C166.094 32.8429 166.249 33.308 166.436 33.6181C166.87 34.2693 167.459 34.5794 168.234 34.5794C168.947 34.5794 169.474 34.3623 169.877 33.9282C170.218 33.5561 170.373 33.091 170.373 32.5329C170.373 31.8817 170.094 31.3546 169.567 30.9205C169.319 30.7034 168.978 30.5174 168.575 30.3623C168.451 30.3003 168.048 30.1763 167.366 29.9282C166.001 29.4631 165.04 28.967 164.42 28.5019C163.211 27.5407 162.622 26.3314 162.622 24.812C162.622 23.4787 163.056 22.4554 163.893 21.6182C164.823 20.688 166.125 20.2539 167.738 20.2539C169.784 20.2539 171.304 20.9671 172.358 22.3314C172.854 22.9826 173.164 23.8508 173.319 24.905H169.908C169.815 24.2539 169.629 23.8198 169.319 23.5097C168.947 23.1686 168.42 23.0136 167.769 23.0136C167.211 23.0136 166.777 23.1376 166.467 23.4167C166.094 23.7267 165.908 24.1298 165.908 24.688C165.908 25.3081 166.187 25.8042 166.715 26.1763C167.118 26.4554 167.924 26.7965 169.102 27.1996C170.497 27.6647 171.583 28.1918 172.296 28.781C173.412 29.6802 173.97 30.8275 173.97 32.3158C173.97 33.8042 173.443 35.0135 172.42 35.9437C171.335 36.9049 169.908 37.401 168.172 37.401C166.032 37.401 164.482 36.5948 163.428 35.0135C162.901 34.1763 162.591 33.246 162.467 32.1918Z" fill="white"/>
  <path d="M174.496 32.1918H178.031C178.124 32.8429 178.279 33.308 178.465 33.6181C178.899 34.2693 179.489 34.5794 180.264 34.5794C180.977 34.5794 181.504 34.3623 181.907 33.9282C182.248 33.5561 182.403 33.091 182.403 32.5329C182.403 31.8817 182.124 31.3546 181.597 30.9205C181.349 30.7034 181.008 30.5174 180.605 30.3623C180.481 30.3003 180.078 30.1763 179.396 29.9282C178.031 29.4631 177.07 28.967 176.45 28.5019C175.241 27.5407 174.651 26.3314 174.651 24.812C174.651 23.4787 175.085 22.4554 175.923 21.6182C176.853 20.688 178.155 20.2539 179.768 20.2539C181.814 20.2539 183.333 20.9671 184.388 22.3314C184.884 22.9826 185.194 23.8508 185.349 24.905H181.938C181.845 24.2539 181.659 23.8198 181.349 23.5097C180.977 23.1686 180.45 23.0136 179.799 23.0136C179.24 23.0136 178.806 23.1376 178.496 23.4167C178.124 23.7267 177.938 24.1298 177.938 24.688C177.938 25.3081 178.217 25.8042 178.744 26.1763C179.147 26.4554 179.954 26.7965 181.132 27.1996C182.527 27.6647 183.613 28.1918 184.326 28.781C185.442 29.6802 186 30.8275 186 32.3158C186 33.8042 185.473 35.0135 184.45 35.9437C183.364 36.9049 181.938 37.401 180.202 37.401C178.062 37.401 176.512 36.5948 175.458 35.0135C174.93 34.1763 174.62 33.246 174.496 32.1918Z" fill="white"/>
  <path d="M40.0533 0.662354H38.813V37.0341H40.0533V0.662354Z" fill="white"/>
</svg>